<svg id="_sign_logo_bug" data-name="@sign logo bug" xmlns="http://www.w3.org/2000/svg" width="22" height="22" viewBox="0 0 22 22">
  <path id="Path_22379" data-name="Path 22379" d="M445.659,122.916a11.266,11.266,0,0,1-.243,2.418,4.572,4.572,0,0,1-1.465,2.466,4.629,4.629,0,0,1-2.418,1.124,4.888,4.888,0,0,1-2.637-.366,5.046,5.046,0,0,1-1.318-.953,5.509,5.509,0,0,1-2.905.83,5.525,5.525,0,0,1-3.907-9.425,5.519,5.519,0,0,1,8.546,6.886,2.161,2.161,0,0,0,.61.439,2.477,2.477,0,0,0,1.27.171,2.184,2.184,0,0,0,1.147-.537,2.042,2.042,0,0,0,.685-1.172,9.719,9.719,0,0,0,.2-1.881,8.5,8.5,0,0,0-8.546-8.546,8.49,8.49,0,0,0-6.056,2.49,8.6,8.6,0,0,0-2.515,6.056,8.572,8.572,0,0,0,11.281,8.131,1.22,1.22,0,1,1,.757,2.32,10.971,10.971,0,0,1-3.467.561,10.8,10.8,0,0,1-4.3-.88,10.894,10.894,0,0,1-5.836-5.836,10.815,10.815,0,0,1-.88-4.3,11.108,11.108,0,0,1,3.224-7.765,10.834,10.834,0,0,1,7.79-3.222,11.033,11.033,0,0,1,4.272.855,11.205,11.205,0,0,1,5.861,5.859A11.038,11.038,0,0,1,445.659,122.916Zm-10.986,3.078a3.077,3.077,0,1,0-3.078-3.078A3.08,3.08,0,0,0,434.673,125.993Z" transform="translate(-423.659 -111.928)" fill="#f15e3e"/>
</svg>
