<svg id="grey_atom_icon" data-name="grey atom icon" xmlns="http://www.w3.org/2000/svg" width="22.75" height="22.75" viewBox="0 0 22.75 22.75">
  <path id="Path_22404" data-name="Path 22404" d="M20.011-9.75c2.821-4.29,3.613-8.34,1.668-10.282-1.357-1.354-3.724-1.454-6.676-.278a20.747,20.747,0,0,0-3.628,1.959,20.917,20.917,0,0,0-3.628-1.959c-2.947-1.175-5.315-1.079-6.676.278C-.874-18.09-.082-14.04,2.738-9.75-.082-5.46-.874-1.41,1.071.532a4.089,4.089,0,0,0,3,1.093A10.131,10.131,0,0,0,7.747.809,20.863,20.863,0,0,0,11.375-1.15,20.8,20.8,0,0,0,15,.809a10.118,10.118,0,0,0,3.678.816,4.1,4.1,0,0,0,3-1.093C23.624-1.41,22.832-5.46,20.011-9.75ZM9.94-2.168A18.628,18.628,0,0,1,7.141-.7C4.872.208,3.082.237,2.222-.617,1.057-1.78,1.568-4.8,3.742-8.315a38.031,38.031,0,0,0,2.888,3.3A37.914,37.914,0,0,0,9.94-2.168Zm-6.2-9.018c-2.174-3.517-2.687-6.534-1.52-7.7a2.539,2.539,0,0,1,1.849-.62,8.567,8.567,0,0,1,3.069.7,18.552,18.552,0,0,1,2.8,1.469A37.109,37.109,0,0,0,3.744-11.185Zm7.631,8.074A35.9,35.9,0,0,1,7.781-6.164,35.416,35.416,0,0,1,4.713-9.749a35.28,35.28,0,0,1,3.067-3.586,35.722,35.722,0,0,1,3.594-3.052,35.856,35.856,0,0,1,3.593,3.052,35.461,35.461,0,0,1,3.069,3.586,35.615,35.615,0,0,1-3.069,3.586A35.8,35.8,0,0,1,11.375-3.111Zm2.85-6.639a2.853,2.853,0,0,0-2.85-2.844,2.851,2.851,0,0,0-2.85,2.85,2.851,2.851,0,0,0,2.85,2.85,2.851,2.851,0,0,0,2.85-2.85Zm-1.63,0a1.219,1.219,0,0,1-1.219,1.219h0a1.222,1.222,0,0,1-1.221-1.221,1.222,1.222,0,0,1,1.221-1.221A1.222,1.222,0,0,1,12.6-9.752Zm.213-7.582a18.712,18.712,0,0,1,2.8-1.469c2.271-.905,4.062-.935,4.918-.082,1.166,1.162.654,4.181-1.52,7.7a38,38,0,0,0-2.887-3.3A37.736,37.736,0,0,0,12.808-17.332Zm6.2,9.018c2.174,3.517,2.687,6.535,1.52,7.7C19.67.236,17.878.208,15.609-.7a18.563,18.563,0,0,1-2.8-1.469A38.125,38.125,0,0,0,16.12-5.015,38.218,38.218,0,0,0,19.006-8.315Z" transform="translate(0 21.125)" fill="currentColor"/>
</svg>
