<svg id="icons-your_signs" data-name="icons-your@signs" xmlns="http://www.w3.org/2000/svg" width="18" height="15.75" viewBox="0 0 18 15.75">
  <path id="Path_22457" data-name="Path 22457" d="M16.312-11.25H13.5v-1.687a1.687,1.687,0,0,0-1.687-1.687H6.187A1.687,1.687,0,0,0,4.5-12.937v1.687H1.687A1.687,1.687,0,0,0,0-9.562v9A1.687,1.687,0,0,0,1.687,1.125H16.312A1.687,1.687,0,0,0,18-.562v-9A1.687,1.687,0,0,0,16.312-11.25ZM6.187-12.937h5.625v1.687H6.187ZM1.9-9.562H16.1a.211.211,0,0,1,.211.211v2.6H1.687v-2.6A.211.211,0,0,1,1.9-9.562Zm14.2,9H1.9a.211.211,0,0,1-.211-.211V-5.062H6.75v.844a.844.844,0,0,0,.844.844h2.812a.844.844,0,0,0,.844-.844v-.844h5.062V-.773A.211.211,0,0,1,16.1-.562Z" transform="translate(0 14.625)" fill="#4a4a4a"/>
</svg>
