<svg id="green_check" data-name="green check" xmlns="http://www.w3.org/2000/svg" width="21.313" height="21.313" viewBox="0 0 21.313 21.313">
  <path id="Path_22403" data-name="Path 22403" d="M21.656-8.25A10.656,10.656,0,0,0,11-18.906,10.656,10.656,0,0,0,.344-8.25,10.656,10.656,0,0,0,11,2.406,10.656,10.656,0,0,0,21.656-8.25ZM9.767-2.608a.688.688,0,0,1-.972,0L4.326-7.076a.688.688,0,0,1,0-.972L5.3-9.021a.688.688,0,0,1,.972,0l3.01,3.01,6.448-6.448a.687.687,0,0,1,.972,0l.972.972a.688.688,0,0,1,0,.972Z" transform="translate(-0.344 18.906)" fill="#0faa68"/>
</svg>
