<svg id="icon_congrats_burst" data-name="icon congrats burst" xmlns="http://www.w3.org/2000/svg" width="69.597" height="69.597" viewBox="0 0 69.597 69.597">
  <g id="XMLID_149_">
    <g id="XMLID_161_" transform="translate(0)">
      <path id="XMLID_199_" d="M219.931,119.6a5.674,5.674,0,1,0,5.674,5.674A5.681,5.681,0,0,0,219.931,119.6Zm0,8.63a2.956,2.956,0,1,1,2.956-2.956A2.959,2.959,0,0,1,219.931,128.233Z" transform="translate(-185.133 -103.345)" fill="#f15e3e"/>
      <path id="XMLID_203_" d="M247.359,2.719a1.36,1.36,0,0,0,1.359-1.359,1.359,1.359,0,1,0-2.32.961A1.37,1.37,0,0,0,247.359,2.719Z" transform="translate(-212.561 0)" fill="#f15e3e"/>
      <path id="XMLID_215_" d="M300.918,76.042a1.355,1.355,0,0,0,.961-.4l3.849-3.848a1.359,1.359,0,1,0-1.922-1.922l-3.848,3.848a1.359,1.359,0,0,0,.961,2.32Z" transform="translate(-258.839 -60.031)" fill="#f15e3e"/>
      <path id="XMLID_216_" d="M307.277,213.981a1.359,1.359,0,0,0,.961-2.32l-6.359-6.359a1.359,1.359,0,0,0-1.922,1.922l6.359,6.359A1.355,1.355,0,0,0,307.277,213.981Z" transform="translate(-258.839 -177.051)" fill="#f15e3e"/>
      <path id="XMLID_217_" d="M247.359,227.088A1.359,1.359,0,0,0,246,228.447v5.913a1.359,1.359,0,1,0,2.719,0v-5.913A1.359,1.359,0,0,0,247.359,227.088Z" transform="translate(-212.561 -196.22)" fill="#f15e3e"/>
      <path id="XMLID_218_" d="M96.011,154.069a1.36,1.36,0,1,0-.962-.4A1.372,1.372,0,0,0,96.011,154.069Z" transform="translate(-81.784 -130.777)" fill="#f15e3e"/>
      <path id="XMLID_219_" d="M157.333,205.3l-5.586,5.586a1.359,1.359,0,0,0,1.922,1.922l5.586-5.586a1.359,1.359,0,0,0-1.922-1.922Z" transform="translate(-130.776 -177.05)" fill="#f15e3e"/>
      <path id="XMLID_220_" d="M136.014,151.345a1.359,1.359,0,0,0,0,2.719h4.84a1.359,1.359,0,0,0,0-2.719Z" transform="translate(-116.351 -130.772)" fill="#f15e3e"/>
      <path id="XMLID_221_" d="M398.708,151.35a1.357,1.357,0,1,0,.962.4A1.371,1.371,0,0,0,398.708,151.35Z" transform="translate(-343.338 -130.777)" fill="#f15e3e"/>
      <path id="XMLID_222_" d="M323.1,151.345a1.359,1.359,0,0,0,0,2.719h4.077a1.359,1.359,0,0,0,0-2.719Z" transform="translate(-278.005 -130.772)" fill="#f15e3e"/>
      <path id="XMLID_223_" d="M247.359,368.615A1.359,1.359,0,0,0,246,369.974v16.772a1.359,1.359,0,0,0,2.719,0V369.974A1.359,1.359,0,0,0,247.359,368.615Z" transform="translate(-212.561 -318.509)" fill="#f15e3e"/>
      <path id="XMLID_226_" d="M413.573,248.778l-2.583-2.658.528-3.669a1.359,1.359,0,0,0-1.945-1.413l-3.326,1.636-3.326-1.636a1.359,1.359,0,0,0-1.945,1.413l.528,3.669-2.583,2.658a1.359,1.359,0,0,0,.743,2.287l3.652.632,1.73,3.278a1.359,1.359,0,0,0,2.4,0l1.73-3.278,3.652-.632a1.359,1.359,0,0,0,.743-2.287Zm-5.517.354a1.36,1.36,0,0,0-.97.705l-.839,1.591-.839-1.591a1.36,1.36,0,0,0-.97-.705l-1.772-.307,1.254-1.29a1.359,1.359,0,0,0,.371-1.141l-.256-1.78,1.614.794a1.359,1.359,0,0,0,1.2,0l1.614-.794-.256,1.78a1.36,1.36,0,0,0,.371,1.141l1.254,1.29Z" transform="translate(-344.36 -208.153)" fill="#f15e3e"/>
      <path id="XMLID_151_" d="M346.651,346.063a22,22,0,0,0-6.486,15.658v5.2a1.359,1.359,0,0,0,2.719,0v-5.2a19.3,19.3,0,0,1,5.689-13.735,1.359,1.359,0,0,0-1.922-1.922Z" transform="translate(-293.926 -298.678)" fill="#f15e3e"/>
      <path id="XMLID_1466_" d="M15.357,213.488a1.359,1.359,0,0,0-.318-1.367l-2.583-2.658.528-3.669a1.359,1.359,0,0,0-1.945-1.413l-3.326,1.636L4.385,204.38a1.359,1.359,0,0,0-1.945,1.413l.528,3.669L.384,212.12a1.359,1.359,0,0,0,.743,2.287l3.652.632,1.73,3.278a1.359,1.359,0,0,0,2.4,0l1.73-3.278,3.652-.632a1.359,1.359,0,0,0,1.061-.919Zm-5.836-1.014a1.359,1.359,0,0,0-.97.705l-.839,1.591-.839-1.591a1.359,1.359,0,0,0-.97-.705l-1.772-.307,1.254-1.29a1.36,1.36,0,0,0,.371-1.141l-.256-1.78,1.614.794a1.359,1.359,0,0,0,1.2,0l1.614-.794-.256,1.78a1.36,1.36,0,0,0,.371,1.141l1.254,1.29Z" transform="translate(0 -176.478)" fill="#f15e3e"/>
      <path id="XMLID_1469_" d="M107.45,309.4a1.36,1.36,0,0,0,0,1.922,19.3,19.3,0,0,1,5.689,13.735v10.178a1.359,1.359,0,0,0,2.719,0V325.061a22,22,0,0,0-6.486-15.658A1.359,1.359,0,0,0,107.45,309.4Z" transform="translate(-92.5 -267.002)" fill="#f15e3e"/>
      <path id="XMLID_1703_" d="M356.856,9.344a4.367,4.367,0,1,0-4.366-4.367A4.371,4.371,0,0,0,356.856,9.344Zm0-6.014a1.648,1.648,0,1,1-1.648,1.648A1.65,1.65,0,0,1,356.856,3.33Z" transform="translate(-304.575 -0.528)" fill="#f15e3e"/>
      <path id="XMLID_1832_" d="M168.376,75.644a1.359,1.359,0,1,0,1.922-1.922l-3.849-3.848a1.359,1.359,0,1,0-1.922,1.922Z" transform="translate(-141.819 -60.031)" fill="#f15e3e"/>
      <path id="XMLID_1835_" d="M99.633,9.344a4.367,4.367,0,1,0-4.367-4.367A4.371,4.371,0,0,0,99.633,9.344Zm0-6.014a1.648,1.648,0,1,1-1.648,1.648A1.65,1.65,0,0,1,99.633,3.33Z" transform="translate(-82.316 -0.528)" fill="#f15e3e"/>
      <path id="XMLID_1836_" d="M247.359,47.558a1.359,1.359,0,0,0,1.359-1.359v-4.84a1.359,1.359,0,0,0-2.719,0V46.2A1.359,1.359,0,0,0,247.359,47.558Z" transform="translate(-212.561 -34.563)" fill="#f15e3e"/>
      <path id="XMLID_1908_" d="M247.359,323.66a1.36,1.36,0,1,0,.961.4A1.37,1.37,0,0,0,247.359,323.66Z" transform="translate(-212.561 -279.664)" fill="#f15e3e"/>
    </g>
  </g>
</svg>
