<svg id="icon_copy" data-name="icon copy" xmlns="http://www.w3.org/2000/svg" width="15.75" height="18" viewBox="0 0 15.75 18">
  <path id="Path_22447" data-name="Path 22447" d="M11.25,0H5.344A1.971,1.971,0,0,1,3.375-1.969V-12.375H.844A.844.844,0,0,0,0-11.531V1.406a.844.844,0,0,0,.844.844h9.562a.844.844,0,0,0,.844-.844Zm0-12.094V-15.75H5.344a.844.844,0,0,0-.844.844V-1.969a.844.844,0,0,0,.844.844h9.562a.844.844,0,0,0,.844-.844V-11.25H12.094A.846.846,0,0,1,11.25-12.094ZM15.5-13.185,13.185-15.5a.969.969,0,0,0-.6-.247h-.213v3.375H15.75v-.213A.969.969,0,0,0,15.5-13.185Z" transform="translate(0 15.75)" fill="currentColor"/>
</svg>
