<svg id="icon_history" data-name="icon history" xmlns="http://www.w3.org/2000/svg" width="17.212" height="17.438" viewBox="0 0 17.212 17.438">
  <path id="Path_22448" data-name="Path 22448" d="M17.719-6.766A8.719,8.719,0,0,0,9-15.469a8.69,8.69,0,0,0-6.19,2.58L1.225-14.453a.422.422,0,0,0-.718.3V-9.7a.422.422,0,0,0,.422.422H5.44a.422.422,0,0,0,.3-.722l-1.726-1.7A7.008,7.008,0,0,1,9-13.781,7.027,7.027,0,0,1,16.031-6.75,7.027,7.027,0,0,1,9,.281,7.006,7.006,0,0,1,4.319-1.5a.423.423,0,0,0-.582.014l-.6.6a.422.422,0,0,0,.016.612,8.687,8.687,0,0,0,5.85,2.248A8.739,8.739,0,0,0,17.719-6.766ZM11.846-3.6l.5-.682a.422.422,0,0,0-.093-.589L9.844-6.617v-5.055a.422.422,0,0,0-.422-.422H8.578a.422.422,0,0,0-.422.422v5.914l3.1,2.255A.422.422,0,0,0,11.846-3.6Z" transform="translate(-0.507 15.469)" fill="currentColor"/>
</svg>
