<svg id="icon_shopping" data-name="icon shopping" xmlns="http://www.w3.org/2000/svg" width="24.5" height="28" viewBox="0 0 24.5 28">
  <path id="Path_22397" data-name="Path 22397" d="M19.25-17.5a7.008,7.008,0,0,0-7-7,7.008,7.008,0,0,0-7,7H0V-.875A4.375,4.375,0,0,0,4.375,3.5h15.75A4.375,4.375,0,0,0,24.5-.875V-17.5Zm-7-5.25A5.256,5.256,0,0,1,17.5-17.5H7A5.256,5.256,0,0,1,12.25-22.75ZM22.75-.875A2.628,2.628,0,0,1,20.125,1.75H4.375A2.628,2.628,0,0,1,1.75-.875V-15.75h3.5v2.625a.875.875,0,0,0,.875.875A.875.875,0,0,0,7-13.125V-15.75H17.5v2.625a.875.875,0,0,0,.875.875.875.875,0,0,0,.875-.875V-15.75h3.5Z" transform="translate(0 24.5)" fill="#9a9a9a"/>
</svg>
