<svg id="white_spacecat" data-name="white spacecat" xmlns="http://www.w3.org/2000/svg" width="93.75" height="75" viewBox="0 0 93.75 75">
  <path id="Path_22425" data-name="Path 22425" d="M75-39.844a2.345,2.345,0,0,0,2.344-2.344A2.345,2.345,0,0,0,75-44.531a2.345,2.345,0,0,0-2.344,2.344h0A2.343,2.343,0,0,0,75-39.844Zm9.375-20.988v-.106l-.068.051a23.23,23.23,0,0,0-13.995-4.738,23.23,23.23,0,0,0-13.995,4.738l-.068-.051v.106a23.323,23.323,0,0,0-9.375,18.644c0,.056.016.107.016.163-12.3.711-27.011,10.1-32.829,20.97V-39.844A11.74,11.74,0,0,0,2.344-51.562,2.345,2.345,0,0,0,0-49.219a2.345,2.345,0,0,0,2.344,2.344,7.045,7.045,0,0,1,7.031,7.031v37.5A11.74,11.74,0,0,0,21.094,9.375H51.562A4.7,4.7,0,0,0,56.25,4.687a9.6,9.6,0,0,0-8.4-9.325l13.092-5.818V4.687a4.7,4.7,0,0,0,4.687,4.687h4.687A4.7,4.7,0,0,0,75,4.687v-23.91c10.349-2.114,18.749-12.4,18.75-22.965A23.323,23.323,0,0,0,84.375-60.831Zm-14.062-.106a21.863,21.863,0,0,1,10.076,2.989L75-53.906H65.625l-5.389-4.042A21.863,21.863,0,0,1,70.312-60.937Zm9.375,9.375v9.375a9.378,9.378,0,0,1-9.375,9.375,9.378,9.378,0,0,1-9.375-9.375v-9.375l3.125,2.344h12.5ZM70.312,4.687H65.625V-14.063a2.344,2.344,0,0,0-2.344-2.344,2.791,2.791,0,0,0-.952.2L44.412-8.24a15.954,15.954,0,0,0-9.851-12.435,1.4,1.4,0,0,0-.343-.052,1.225,1.225,0,0,0-1.135.9l-.568,2.28a1.437,1.437,0,0,0-.03.266A1.276,1.276,0,0,0,33.3-16.15a10.757,10.757,0,0,1,6.541,9.4V0h7.031a4.7,4.7,0,0,1,4.687,4.687H21.094a7.09,7.09,0,0,1-7.031-7.21A35.168,35.168,0,0,1,47.369-37.406c2.147,10.3,12.426,18.654,22.943,18.656Zm0-28.125a18.787,18.787,0,0,1-18.75-18.75,18.588,18.588,0,0,1,4.687-12.27v12.27A14.068,14.068,0,0,0,70.312-28.125,14.068,14.068,0,0,0,84.375-42.187v-12.27a18.588,18.588,0,0,1,4.687,12.27A18.787,18.787,0,0,1,70.312-23.437Zm-7.031-18.75a2.345,2.345,0,0,0,2.344,2.344,2.345,2.345,0,0,0,2.344-2.344,2.345,2.345,0,0,0-2.344-2.344h0a2.343,2.343,0,0,0-2.342,2.342ZM23.869-55.551l5.817,2.426,2.426,5.817a.853.853,0,0,0,.7.433.853.853,0,0,0,.7-.433l2.426-5.817,5.818-2.426a.856.856,0,0,0,.431-.7.856.856,0,0,0-.431-.7l-5.818-2.426-2.426-5.817a.854.854,0,0,0-.7-.433.854.854,0,0,0-.7.433l-2.426,5.817-5.817,2.426a.856.856,0,0,0-.431.7A.856.856,0,0,0,23.869-55.551Z" transform="translate(0 65.625)" fill="#fff"/>
</svg>
