<svg id="icon_white_guage" data-name="icon white guage" xmlns="http://www.w3.org/2000/svg" width="22.5" height="17.5" viewBox="0 0 22.5 17.5">
  <path id="Path_22408" data-name="Path 22408" d="M17.316-5.919l-3.979.8A2.5,2.5,0,0,0,11.25-6.25a2.5,2.5,0,0,0-2.5,2.5A2.474,2.474,0,0,0,9.1-2.5H13.4a2.557,2.557,0,0,0,.28-.781l4-.8a.936.936,0,0,0,.735-1.1A.934.934,0,0,0,17.316-5.919ZM11.25-16.25A11.25,11.25,0,0,0,0-5,11.192,11.192,0,0,0,1.526.656,1.236,1.236,0,0,0,2.6,1.25H19.9A1.236,1.236,0,0,0,20.974.656,11.192,11.192,0,0,0,22.5-5,11.25,11.25,0,0,0,11.25-16.25ZM19.542-.625H2.958A9.368,9.368,0,0,1,1.875-5a9.385,9.385,0,0,1,9.375-9.375A9.385,9.385,0,0,1,20.625-5,9.368,9.368,0,0,1,19.542-.625Z" transform="translate(0 16.25)" fill="#fff"/>
</svg>
