<svg xmlns="http://www.w3.org/2000/svg" viewBox="0 0 69.112 101.31"><g data-name="white add bag"><path data-name="Path 22429" d="M44.182 60.809a13.515 13.515 0 00-13.5-13.5 13.515 13.515 0 00-13.5 13.5H7.057v32.063a8.438 8.438 0 008.437 8.437h30.375a8.437 8.437 0 008.438-8.437V60.809zm-13.5-10.125a10.136 10.136 0 0110.125 10.125h-20.25a10.136 10.136 0 0110.125-10.125zm20.25 42.188a5.068 5.068 0 01-5.062 5.062H15.494a5.068 5.068 0 01-5.062-5.062V64.184h6.75v5.062a1.688 1.688 0 001.687 1.687 1.688 1.688 0 001.688-1.686v-5.062h20.25v5.062a1.687 1.687 0 001.687 1.687 1.687 1.687 0 001.687-1.687v-5.062h6.75z" fill="#fff"/><path data-name="Path 22381" d="M3.47 20.559l5.852 8.7" fill="none" stroke="#fff" stroke-linecap="round" stroke-width="5"/><path data-name="Path 22383" d="M61.211 15.702L54.057 28.82" fill="none" stroke="#fff" stroke-linecap="round" stroke-width="5"/><path data-name="Path 22382" d="M30.143 4.155l.823 20.455" fill="none" stroke="#fff" stroke-linecap="round" stroke-width="5"/></g></svg>
