<svg id="icon_white_logout" data-name="icon white logout" xmlns="http://www.w3.org/2000/svg" width="20.001" height="15" viewBox="0 0 20.001 15">
  <path id="Path_22410" data-name="Path 22410" d="M3.75-15A3.751,3.751,0,0,0,0-11.25v7.5A3.751,3.751,0,0,0,3.75,0H7.031A.47.47,0,0,0,7.5-.469v-.937a.47.47,0,0,0-.469-.469H3.75A1.875,1.875,0,0,1,1.875-3.75v-7.5A1.875,1.875,0,0,1,3.75-13.125H7.031a.47.47,0,0,0,.469-.469v-.937A.47.47,0,0,0,7.031-15Zm9.027.762-.766.766a.464.464,0,0,0,.008.668l4.418,4.289H6.719a.47.47,0,0,0-.469.469v1.094a.47.47,0,0,0,.469.469h9.719L12.02-2.2a.47.47,0,0,0-.008.668l.766.766a.469.469,0,0,0,.664,0l6.422-6.406a.469.469,0,0,0,0-.664l-6.422-6.406A.473.473,0,0,0,12.777-14.238Z" transform="translate(0 15)" fill="#fff"/>
</svg>
