<svg id="white_alien" data-name="white alien" xmlns="http://www.w3.org/2000/svg" width="84.375" height="65.625" viewBox="0 0 84.375 65.625">
  <path id="Path_22426" data-name="Path 22426" d="M28.125-18.75h4.687V-32.812H28.125Zm23.437,0H56.25V-32.812H51.562ZM79.687-49.219H75a4.7,4.7,0,0,0-4.687,4.687v2.344H60.937v-4.687h4.687a4.7,4.7,0,0,0,4.687-4.687V-56.25a4.7,4.7,0,0,0-4.687-4.687H60.937A4.7,4.7,0,0,0,56.25-56.25H51.562a4.7,4.7,0,0,0-4.687,4.687v4.687H37.5v-4.687a4.7,4.7,0,0,0-4.687-4.687H28.125a4.7,4.7,0,0,0-4.687-4.687H18.75a4.7,4.7,0,0,0-4.687,4.687v4.687a4.7,4.7,0,0,0,4.687,4.687h4.687v4.687H14.062v-2.344a4.7,4.7,0,0,0-4.687-4.687H4.687A4.7,4.7,0,0,0,0-44.531v21.094A4.7,4.7,0,0,0,4.687-18.75H9.375v4.687a4.7,4.7,0,0,0,4.687,4.687H18.75V0a4.7,4.7,0,0,0,4.687,4.687H35.156A4.7,4.7,0,0,0,39.844,0V-4.687a4.7,4.7,0,0,0-4.687-4.687H49.219a4.7,4.7,0,0,0-4.687,4.687V0a4.7,4.7,0,0,0,4.687,4.687H60.937A4.7,4.7,0,0,0,65.625,0V-9.375h4.687A4.7,4.7,0,0,0,75-14.062V-18.75h4.687a4.7,4.7,0,0,0,4.687-4.687V-44.531A4.7,4.7,0,0,0,79.687-49.219ZM60.937-56.25h4.687v4.687H60.937ZM18.75-51.562V-56.25h4.687v4.687ZM35.156,0H23.437V-9.375h4.687v4.687h7.031ZM60.937,0H49.219V-4.687H56.25V-9.375h4.687Zm18.75-23.437H70.312v9.375H14.062v-9.375H4.687V-44.531H9.375v16.406h4.687V-37.5H28.125V-51.562h4.687v9.375h18.75v-9.375H56.25V-37.5H70.312v9.375H75V-44.531h4.687Z" transform="translate(0 60.937)" fill="#fff"/>
</svg>
