<svg id="icon_sad" data-name="icon sad" xmlns="http://www.w3.org/2000/svg" width="27.125" height="27.125" viewBox="0 0 27.125 27.125">
  <path id="Path_22406" data-name="Path 22406" d="M13.562-24.062A13.56,13.56,0,0,0,0-10.5,13.56,13.56,0,0,0,13.562,3.062,13.56,13.56,0,0,0,27.125-10.5,13.56,13.56,0,0,0,13.562-24.062Zm0,24.5A10.948,10.948,0,0,1,2.625-10.5,10.948,10.948,0,0,1,13.562-21.437,10.948,10.948,0,0,1,24.5-10.5,10.948,10.948,0,0,1,13.562.437ZM9.187-11.375a1.748,1.748,0,0,0,1.75-1.75,1.748,1.748,0,0,0-1.75-1.75,1.748,1.748,0,0,0-1.75,1.75A1.748,1.748,0,0,0,9.187-11.375Zm8.75-3.5a1.748,1.748,0,0,0-1.75,1.75,1.748,1.748,0,0,0,1.75,1.75,1.748,1.748,0,0,0,1.75-1.75A1.748,1.748,0,0,0,17.937-14.875Zm-4.375,7A7.374,7.374,0,0,0,7.886-5.217a1.311,1.311,0,0,0,.17,1.848A1.316,1.316,0,0,0,9.9-3.538a4.758,4.758,0,0,1,3.659-1.717,4.74,4.74,0,0,1,3.659,1.717,1.316,1.316,0,0,0,1.848.17,1.316,1.316,0,0,0,.17-1.848A7.374,7.374,0,0,0,13.562-7.875Z" transform="translate(0 24.062)" fill="#2d2a26"/>
</svg>
