<svg id="Elipses" xmlns="http://www.w3.org/2000/svg" width="25.313" height="5.625" viewBox="0 0 25.313 5.625">
  <path id="Path_22416" data-name="Path 22416" d="M17.812-11.25A2.813,2.813,0,0,0,15-14.062a2.813,2.813,0,0,0-2.812,2.812A2.813,2.813,0,0,0,15-8.437,2.813,2.813,0,0,0,17.812-11.25Zm7.031-2.812a2.813,2.813,0,0,0-2.812,2.812,2.813,2.813,0,0,0,2.812,2.812,2.813,2.813,0,0,0,2.812-2.812A2.813,2.813,0,0,0,24.844-14.062Zm-19.687,0A2.813,2.813,0,0,0,2.344-11.25,2.813,2.813,0,0,0,5.156-8.437,2.813,2.813,0,0,0,7.969-11.25,2.813,2.813,0,0,0,5.156-14.062Z" transform="translate(-2.344 14.062)" fill="#4a4a4a"/>
</svg>
