<svg id="icon_white_create" data-name="icon white create" xmlns="http://www.w3.org/2000/svg" width="19.375" height="19.375" viewBox="0 0 19.375 19.375">
  <path id="Path_22409" data-name="Path 22409" d="M15-8.125a.47.47,0,0,0-.469-.469H11.094v-3.437a.47.47,0,0,0-.469-.469H9.375a.47.47,0,0,0-.469.469v3.437H5.469A.47.47,0,0,0,5-8.125v1.25a.47.47,0,0,0,.469.469H8.906v3.437a.47.47,0,0,0,.469.469h1.25a.47.47,0,0,0,.469-.469V-6.406h3.437A.47.47,0,0,0,15-6.875Zm4.687.625A9.686,9.686,0,0,0,10-17.187,9.686,9.686,0,0,0,.312-7.5,9.686,9.686,0,0,0,10,2.187,9.686,9.686,0,0,0,19.687-7.5Zm-1.875,0A7.81,7.81,0,0,1,10,.312,7.81,7.81,0,0,1,2.187-7.5,7.81,7.81,0,0,1,10-15.312,7.81,7.81,0,0,1,17.812-7.5Z" transform="translate(-0.313 17.187)" fill="#fff"/>
</svg>
