<svg id="icon_infinity" data-name="icon infinity" xmlns="http://www.w3.org/2000/svg" width="22.5" height="11.25" viewBox="0 0 22.5 11.25">
  <path id="Path_22452" data-name="Path 22452" d="M17.03-12.375c-2.721,0-4.75,2.394-5.78,3.955-1.03-1.561-3.059-3.955-5.78-3.955A5.556,5.556,0,0,0,0-6.75,5.556,5.556,0,0,0,5.47-1.125c2.725,0,4.75-2.394,5.78-3.955,1.03,1.561,3.059,3.955,5.78,3.955A5.556,5.556,0,0,0,22.5-6.75,5.556,5.556,0,0,0,17.03-12.375ZM5.47-2.812A3.864,3.864,0,0,1,1.687-6.75,3.864,3.864,0,0,1,5.47-10.687c2.384,0,4.236,2.893,4.823,3.937C9.7-5.706,7.854-2.812,5.47-2.812Zm11.559,0c-2.384,0-4.236-2.893-4.823-3.937.591-1.044,2.44-3.937,4.823-3.937A3.867,3.867,0,0,1,20.812-6.75,3.864,3.864,0,0,1,17.03-2.812Z" transform="translate(0 12.375)" fill="currentColor"/>
</svg>
