<svg id="icons-invite" xmlns="http://www.w3.org/2000/svg" width="18.001" height="18" viewBox="0 0 18.001 18">
  <path id="Path_22458" data-name="Path 22458" d="M15.469-15.521.844-7.087a1.687,1.687,0,0,0,.2,3.02L5.062-2.4V.562A1.69,1.69,0,0,0,8.107,1.568L9.647-.51l3.934,1.624a1.706,1.706,0,0,0,.643.127,1.691,1.691,0,0,0,.83-.218,1.7,1.7,0,0,0,.84-1.213L17.982-13.8A1.691,1.691,0,0,0,15.469-15.521ZM6.75.562V-1.709l1.287.531ZM14.224-.446,8.817-2.679l4.929-7.112a.564.564,0,0,0-.833-.745L5.477-4.057,1.687-5.625l14.625-8.437Z" transform="translate(-0.002 15.749)" fill="#4a4a4a"/>
</svg>
