<svg id="icon-notifications" xmlns="http://www.w3.org/2000/svg" width="15.75" height="18" viewBox="0 0 15.75 18">
  <path id="Path_22459" data-name="Path 22459" d="M15.447-3.013c-.679-.73-1.95-1.828-1.95-5.424A5.552,5.552,0,0,0,9-13.892v-.733A1.125,1.125,0,0,0,7.875-15.75a1.125,1.125,0,0,0-1.124,1.125v.733a5.552,5.552,0,0,0-4.5,5.455c0,3.6-1.271,4.694-1.95,5.424A1.1,1.1,0,0,0,0-2.25,1.126,1.126,0,0,0,1.128-1.125H14.621A1.126,1.126,0,0,0,15.75-2.25,1.1,1.1,0,0,0,15.447-3.013Zm-13.073.2a8.8,8.8,0,0,0,1.565-5.6c0-.007,0-.013,0-.02a3.937,3.937,0,0,1,3.937-3.937,3.937,3.937,0,0,1,3.937,3.937c0,.007,0,.013,0,.02a8.8,8.8,0,0,0,1.565,5.6Zm5.5,5.062A2.25,2.25,0,0,0,10.124,0h-4.5A2.25,2.25,0,0,0,7.875,2.25Z" transform="translate(0 15.75)" fill="#4a4a4a"/>
</svg>
