<svg id="icon-purchase_history" data-name="icon-purchase history" xmlns="http://www.w3.org/2000/svg" width="15.75" height="18.002" viewBox="0 0 15.75 18.002">
  <path id="Path_22460" data-name="Path 22460" d="M12.094-5.625H3.656a.282.282,0,0,0-.281.281v1.125a.282.282,0,0,0,.281.281h8.437a.282.282,0,0,0,.281-.281V-5.344A.282.282,0,0,0,12.094-5.625Zm2-9.925-1.529,1.1L11.2-15.427a1.684,1.684,0,0,0-1.972,0l-1.357.977-1.357-.977a1.969,1.969,0,0,0-.986-.319,1.969,1.969,0,0,0-.986.319l-1.357.977-1.529-1.1A1.047,1.047,0,0,0,0-14.7V1.2a1.048,1.048,0,0,0,1.659.851L3.189.949l1.357.977a1.684,1.684,0,0,0,1.972,0L7.875.949l1.357.977a1.684,1.684,0,0,0,1.972,0L12.561.949l1.529,1.1A1.047,1.047,0,0,0,15.75,1.2V-14.7A1.047,1.047,0,0,0,14.091-15.55Zm-.028,15.5-1.5-1.079L10.216.555,7.871-1.132,5.527.555,3.182-1.132,1.687-.053V-13.447l1.5,1.079,2.345-1.687,2.345,1.687,2.345-1.687,2.345,1.687,1.494-1.079Zm-1.969-9.51H3.656a.282.282,0,0,0-.281.281v1.125a.282.282,0,0,0,.281.281h8.437a.282.282,0,0,0,.281-.281V-9.281A.282.282,0,0,0,12.094-9.562Z" transform="translate(0 15.75)" fill="#4a4a4a"/>
</svg>
