
<svg id="Reboot_Icon" data-name="Reboot Icon" xmlns="http://www.w3.org/2000/svg" width="21.312" height="21.312" viewBox="0 0 21.312 21.312">
  <path id="Path_22397" data-name="Path 22397" d="M21.141-18.906h-.43a.516.516,0,0,0-.516.516v4.753a10.65,10.65,0,0,0-9.229-5.269A10.68,10.68,0,0,0,.344-8.233,10.656,10.656,0,0,0,11,2.406,10.617,10.617,0,0,0,18.14-.34a.517.517,0,0,0,.021-.749l-.3-.3a.515.515,0,0,0-.708-.02A9.159,9.159,0,0,1,11,.945a9.194,9.194,0,0,1-9.2-9.2,9.194,9.194,0,0,1,9.2-9.2,9.193,9.193,0,0,1,8.176,4.984H14.266a.516.516,0,0,0-.516.516v.43a.516.516,0,0,0,.516.516h6.875a.516.516,0,0,0,.516-.516v-6.875A.516.516,0,0,0,21.141-18.906Z" transform="translate(-0.344 18.906)" fill="#fff"/>
</svg>
