<svg id="icon_white_robot" data-name="icon white robot" xmlns="http://www.w3.org/2000/svg" width="29.25" height="26" viewBox="0 0 29.25 26">
  <path id="Path_22405" data-name="Path 22405" d="M9.75-1.625H13V-3.25H9.75Zm19.5-9.75H27.625V-13a4.877,4.877,0,0,0-4.875-4.875H17.062v-4.062a.813.813,0,0,0-.812-.812.813.813,0,0,0-.812.813v4.062H9.75A4.877,4.877,0,0,0,4.875-13v1.625H3.25A1.626,1.626,0,0,0,1.625-9.75h0v6.5A1.626,1.626,0,0,0,3.25-1.625H4.875A4.877,4.877,0,0,0,9.75,3.25h13a4.877,4.877,0,0,0,4.875-4.875H29.25A1.626,1.626,0,0,0,30.875-3.25v-6.5h0a1.626,1.626,0,0,0-1.625-1.625ZM4.875-3.25H3.25v-6.5H4.875ZM26-1.625a3.265,3.265,0,0,1-3.25,3.25h-13A3.265,3.265,0,0,1,6.5-1.625V-13h0a3.251,3.251,0,0,1,3.25-3.25h13A3.251,3.251,0,0,1,26-13h0ZM29.25-3.25H27.625v-6.5H29.25ZM21.125-13a3.251,3.251,0,0,0-3.25,3.25,3.251,3.251,0,0,0,3.25,3.25,3.251,3.251,0,0,0,3.25-3.25A3.256,3.256,0,0,0,21.125-13Zm0,4.875A1.626,1.626,0,0,1,19.5-9.75a1.626,1.626,0,0,1,1.625-1.625A1.626,1.626,0,0,1,22.75-9.75h0a1.624,1.624,0,0,1-1.624,1.624ZM19.5-1.625h3.25V-3.25H19.5Zm-4.875,0h3.25V-3.25h-3.25ZM11.375-13a3.251,3.251,0,0,0-3.25,3.25,3.251,3.251,0,0,0,3.25,3.25,3.251,3.251,0,0,0,3.25-3.25A3.256,3.256,0,0,0,11.375-13Zm0,4.875A1.626,1.626,0,0,1,9.75-9.75a1.626,1.626,0,0,1,1.625-1.625A1.626,1.626,0,0,1,13-9.75h0a1.624,1.624,0,0,1-1.624,1.624Z" transform="translate(-1.625 22.75)"/>
</svg>
