<svg xmlns="http://www.w3.org/2000/svg" width="72.056" height="110.935" viewBox="0 0 72.056 110.935">
  <g id="excited-roboto" transform="translate(0 4.787)">
    <g id="white_robot" data-name="white robot" transform="translate(0 31.148)">
      <path id="Path_22428" data-name="Path 22428" d="M21.094-23.437h4.687v-4.687H21.094Zm18.75,0h4.687v-4.687H39.844Zm-9.375,0h4.687v-4.687H30.469ZM37.5-2.344A2.345,2.345,0,0,0,35.156,0,2.345,2.345,0,0,0,37.5,2.344,2.345,2.345,0,0,0,39.844,0,2.345,2.345,0,0,0,37.5-2.344ZM56.25-25.781h4.688a4.689,4.689,0,0,0,4.687-4.687h0v-9.375h0a4.689,4.689,0,0,0-4.687-4.687H56.25v-2.344a9.379,9.379,0,0,0-9.375-9.375H35.449v-6.738a2.638,2.638,0,0,0-2.637-2.637,2.638,2.638,0,0,0-2.637,2.637v6.738H18.75a9.379,9.379,0,0,0-9.375,9.375v2.344H4.687A4.689,4.689,0,0,0,0-39.844H0v9.375H0a4.689,4.689,0,0,0,4.687,4.687H9.375v2.344a10.945,10.945,0,0,0,1.513,5.079A14.719,14.719,0,0,0,0-4.687V4.687H0A4.689,4.689,0,0,0,4.687,9.375h56.25a4.689,4.689,0,0,0,4.687-4.687h0V-4.687A14.719,14.719,0,0,0,54.737-18.358a10.945,10.945,0,0,0,1.513-5.079Zm0-14.062h4.687v9.375H56.25ZM9.375-30.469H4.687v-9.375H9.375Zm4.687-16.406a4.7,4.7,0,0,1,4.687-4.687H46.875a4.7,4.7,0,0,1,4.687,4.687v23.437a4.7,4.7,0,0,1-4.687,4.687H18.75a4.7,4.7,0,0,1-4.687-4.687ZM46.875,4.687H30.469V0a2.344,2.344,0,0,0-4.687,0V4.687H18.75V-2.344a2.345,2.345,0,0,1,2.344-2.344H44.531a2.345,2.345,0,0,1,2.344,2.344ZM60.937-4.687V4.687H51.562V-2.344a7.045,7.045,0,0,0-7.031-7.031H21.094a7.045,7.045,0,0,0-7.031,7.031V4.687H4.687V-4.687a9.393,9.393,0,0,1,9.375-9.375h37.5A9.393,9.393,0,0,1,60.937-4.687ZM42.187-32.812a7.034,7.034,0,0,0,7.031-7.031,7.034,7.034,0,0,0-7.031-7.031,7.034,7.034,0,0,0-7.031,7.031h0a7.033,7.033,0,0,0,7.031,7.031Zm0-9.375a2.345,2.345,0,0,1,2.344,2.344A2.345,2.345,0,0,1,42.187-37.5a2.345,2.345,0,0,1-2.344-2.344A2.348,2.348,0,0,1,42.187-42.187Zm-18.75,9.375a7.034,7.034,0,0,0,7.031-7.031,7.034,7.034,0,0,0-7.031-7.031,7.034,7.034,0,0,0-7.031,7.031h0a7.033,7.033,0,0,0,7.031,7.031Zm0-9.375a2.345,2.345,0,0,1,2.344,2.344A2.345,2.345,0,0,1,23.437-37.5a2.345,2.345,0,0,1-2.344-2.344A2.348,2.348,0,0,1,23.437-42.187Z" transform="translate(0 65.625)" fill="currentColor"/>
    </g>
    <path id="Path_22381" data-name="Path 22381" d="M-7498.587,549l5.852,8.7" transform="translate(7505 -533.227)" fill="none" stroke="#fff" stroke-linecap="round" stroke-width="5"/>
    <path id="Path_22383" data-name="Path 22383" d="M-7498.587,549l9.879,11.209" transform="translate(3144.713 6869.513) rotate(70)" fill="none" stroke="#fff" stroke-linecap="round" stroke-width="5"/>
    <path id="Path_22382" data-name="Path 22382" d="M-7498.587,549l11.539,16.91" transform="matrix(0.848, 0.53, -0.53, 0.848, 6682.858, 3508.067)" fill="none" stroke="#fff" stroke-linecap="round" stroke-width="5"/>
  </g>
</svg>
