<svg id="transfer-out-icon" xmlns="http://www.w3.org/2000/svg" width="11.373" height="9.75" viewBox="0 0 11.373 9.75">
  <path id="Path_22504" data-name="Path 22504" d="M0-.609A.608.608,0,0,0,.609,0h.609a.608.608,0,0,0,.609-.609V-9.141a.608.608,0,0,0-.609-.609H.609A.608.608,0,0,0,0-9.141ZM3.047-3.25H6.5v2.227a.507.507,0,0,0,.866.358L11.23-4.53a.492.492,0,0,0,0-.693L7.366-9.087a.507.507,0,0,0-.866.358V-6.5H3.047a.608.608,0,0,0-.609.609v2.031A.608.608,0,0,0,3.047-3.25Z" transform="translate(0 9.75)" fill="#f05e3e"/>
</svg>
