<svg id="transfer-in-icon" xmlns="http://www.w3.org/2000/svg" width="11.375" height="9.75" viewBox="0 0 11.375 9.75">
  <path id="Path_22503" data-name="Path 22503" d="M0-.609A.608.608,0,0,0,.609,0h.609a.608.608,0,0,0,.609-.609V-9.141a.608.608,0,0,0-.609-.609H.609A.608.608,0,0,0,0-9.141ZM10.766-6.5H7.312V-8.727a.507.507,0,0,0-.866-.358L2.582-5.223a.492.492,0,0,0,0,.693L6.447-.665a.507.507,0,0,0,.866-.358V-3.25h3.453a.608.608,0,0,0,.609-.609V-5.891A.608.608,0,0,0,10.766-6.5Z" transform="translate(0 9.75)" fill="#2d2a26"/>
</svg>
