<svg id="icon-verification_mehtods" data-name="icon-verification mehtods" xmlns="http://www.w3.org/2000/svg" width="18" height="18" viewBox="0 0 18 18">
  <path id="Path_22461" data-name="Path 22461" d="M9-7.1a.844.844,0,0,0-.844.844,25.707,25.707,0,0,1-.974,7.437.844.844,0,1,0,1.625.456A27.21,27.21,0,0,0,9.848-6.259.843.843,0,0,0,9-7.1Zm-.03-2.873A3.516,3.516,0,0,0,5.347-6.422a23.067,23.067,0,0,1-.47,5.012.843.843,0,0,0,.655,1,.843.843,0,0,0,1-.655,24.75,24.75,0,0,0,.505-5.38,1.832,1.832,0,0,1,1.914-1.84,2.035,2.035,0,0,1,2.026,1.95A28.259,28.259,0,0,1,10.6-1.292a.843.843,0,0,0,.695.97.847.847,0,0,0,.97-.7,29.99,29.99,0,0,0,.4-5.348A3.735,3.735,0,0,0,8.974-9.976Zm-3.891-.7a.845.845,0,0,0-1.187.122A6.1,6.1,0,0,0,2.533-6.612a20.416,20.416,0,0,1-.32,3.939.844.844,0,0,0,.681.98.849.849,0,0,0,.981-.681,22.112,22.112,0,0,0,.347-4.266,4.345,4.345,0,0,1,.984-2.847A.844.844,0,0,0,5.083-10.672Zm3.849-2.191a6.283,6.283,0,0,0-1.609.175.845.845,0,0,0-.627,1.016.846.846,0,0,0,1.016.627,5.047,5.047,0,0,1,1.2-.13,4.921,4.921,0,0,1,4.882,4.731,30.978,30.978,0,0,1-.2,3.995.844.844,0,0,0,.742.934.845.845,0,0,0,.934-.742c.116-1.02.211-2.68.211-3.707,0-.14,0-.367,0-.507A6.621,6.621,0,0,0,8.931-12.863Zm8.862,4.27a.84.84,0,0,0-1.006-.642.844.844,0,0,0-.642,1.006,8.767,8.767,0,0,1,.165,2.166.844.844,0,0,0,.837.851h.007A.844.844,0,0,0,18-6.05,10.449,10.449,0,0,0,17.793-8.593Zm-1.41-3.189a9.352,9.352,0,0,0-7.495-3.967,8.806,8.806,0,0,0-6.411,2.564A8.384,8.384,0,0,0,0-7.079l0,.755a.843.843,0,0,0,.818.868H.844a.844.844,0,0,0,.843-.819l.006-.831a6.707,6.707,0,0,1,1.979-4.887,7.125,7.125,0,0,1,5.192-2.069A7.659,7.659,0,0,1,15-10.813a.844.844,0,0,0,1.175.206A.844.844,0,0,0,16.382-11.783Z" transform="translate(0 15.75)" fill="#4a4a4a"/>
</svg>
