<svg id="Layer_1" data-name="Layer 1" xmlns="http://www.w3.org/2000/svg" viewBox="0 0 200 200"><rect x="-0.59" y="0.42" width="201.52" height="201.52" style="fill:#f05e3e"/><path d="M77.73,114.71a45.17,45.17,0,0,0,22.44,5.51c1.62,0,2.89,0,3.93,0h0l41.81.06a17.66,17.66,0,0,1,17.64,17.64v28.68a4.27,4.27,0,0,0,4.27,4.27h0a4.27,4.27,0,0,0,4.27-4.27V137.9a26.21,26.21,0,0,0-26.18-26.18l-37.61-.15c-2-.09-4.6-.18-8.13-.24a37,37,0,0,1-17.83-4.41A31.48,31.48,0,0,1,70.12,94.7a35.69,35.69,0,0,1-4.41-17.83A35.69,35.69,0,0,1,70.12,59,31.48,31.48,0,0,1,82.34,46.82a35.69,35.69,0,0,1,17.83-4.4A35.69,35.69,0,0,1,118,46.82,31.48,31.48,0,0,1,130.22,59a35.69,35.69,0,0,1,4.41,17.83,39.21,39.21,0,0,1-1,9.36,18.07,18.07,0,0,1-2.78,6.5q-1.75,2.35-3.8,2.35-2.91,0-2.91-4.53V76.87a25.17,25.17,0,0,0-3-12.4,21.48,21.48,0,0,0-8.51-8.5,25.06,25.06,0,0,0-12.4-3A24.58,24.58,0,0,0,87.82,56a21.86,21.86,0,0,0-8.47,8.51,24.89,24.89,0,0,0-3,12.35,25.78,25.78,0,0,0,2.94,12.4,21.46,21.46,0,0,0,8.17,8.51,23.23,23.23,0,0,0,11.88,3A17,17,0,0,0,108.42,98a20,20,0,0,0,7-7.27v3.85a8.68,8.68,0,0,0,3,6.93,11.54,11.54,0,0,0,7.78,2.56,13.25,13.25,0,0,0,9-3.46,22.94,22.94,0,0,0,6.16-9.66,41.59,41.59,0,0,0,2.22-14.07A45.18,45.18,0,0,0,138,54.43,39,39,0,0,0,122.61,39a45.18,45.18,0,0,0-22.44-5.52A45.18,45.18,0,0,0,77.73,39,39,39,0,0,0,62.34,54.43a45.18,45.18,0,0,0-5.52,22.44,45.18,45.18,0,0,0,5.52,22.44A39.1,39.1,0,0,0,77.73,114.71Zm35.52-30.06A13.13,13.13,0,0,1,108,90a17,17,0,0,1-15.56,0,13.13,13.13,0,0,1-5.3-5.3,17,17,0,0,1,0-15.56,13.19,13.19,0,0,1,5.3-5.3,17,17,0,0,1,15.56,0,13.19,13.19,0,0,1,5.3,5.3,17,17,0,0,1,0,15.56Z" style="fill:#fff"/><path d="M32.53,170.85a4.27,4.27,0,0,0,4.26-4.27V135a17.66,17.66,0,0,1,17.64-17.63l11.57,0a39,39,0,0,1-8.13-8.54l-3.44,0A26.2,26.2,0,0,0,28.26,135v31.56a4.27,4.27,0,0,0,4.27,4.27Z" style="fill:#fff"/></svg>