<svg id="_Sign_Logo" data-name="@Sign Logo" xmlns="http://www.w3.org/2000/svg" width="74.471" height="72.537" viewBox="0 0 74.471 72.537">
  <defs>
    <style>
      .cls-1 {
        fill: #d94d1a;
      }
    </style>
  </defs>
  <path id="Path_1" data-name="Path 1" class="cls-1" d="M139.919,188.024l-.3.377a16.659,16.659,0,0,1-3.127,3.049,10.341,10.341,0,0,1-4.072,1.857,8.779,8.779,0,0,1-3.788-.02,6,6,0,0,1-3.872-2.8,9.3,9.3,0,0,1-1.179-3.242,18.89,18.89,0,0,1-.175-4.763,26.942,26.942,0,0,1,1.247-6.4,26.082,26.082,0,0,1,4.88-8.94,18.066,18.066,0,0,1,4.861-4.127,12.164,12.164,0,0,1,4.093-1.485,8.339,8.339,0,0,1,3.6.116,7.115,7.115,0,0,1,3.113,1.843c.1.1.2.2.329.344.15-.537.288-1.028.427-1.522h5c-.019.089-.031.166-.053.24-1.31,4.558-2.436,9.162-3.5,13.782-.549,2.383-1.095,4.767-1.732,7.131-.137.507-.258,1.018-.406,1.521a18.086,18.086,0,0,0-.516,2.671,27.213,27.213,0,0,0-.277,4.712,10.884,10.884,0,0,0,.8,3.847,5.349,5.349,0,0,0,1.095,1.694,3.032,3.032,0,0,0,2.094.931,5.971,5.971,0,0,0,2.719-.566,10.28,10.28,0,0,0,2.445-1.559c.471-.394.936-.8,1.427-1.165a6.2,6.2,0,0,1,3.15-1.21,4.122,4.122,0,0,1,2.3.455,17.938,17.938,0,0,0,2.245.918,10.86,10.86,0,0,0,4.286.556,6.8,6.8,0,0,0,3.256-1,5.739,5.739,0,0,0,.561-.408,2.626,2.626,0,0,0,.932-2.772c-.075-.345-.236-.67-.337-1.01-.122-.408-.237-.819-.327-1.235a1.113,1.113,0,0,1,.269-1c.281-.32.575-.632.883-.926a4.4,4.4,0,0,0,.919-1.169,1.97,1.97,0,0,0,.242-1.105,1,1,0,0,0-.53-.814,2.054,2.054,0,0,0-1-.249c-.294,0-.588,0-.881-.01-.132,0-.263-.027-.394-.042,0-.02,0-.04-.007-.06.087-.014.173-.027.259-.044.419-.08.848-.125,1.255-.245a3.737,3.737,0,0,0,1.758-1.164,1.058,1.058,0,0,0,.176-1.217,2.339,2.339,0,0,0-.511-.743c-.2-.191-.4-.383-.588-.583a1.246,1.246,0,0,1-.014-1.876,9.606,9.606,0,0,1,1.035-.88c.456-.355.935-.68,1.391-1.036a4.547,4.547,0,0,0,.967-.99,1.294,1.294,0,0,0-.024-1.717,10.986,10.986,0,0,0-.961-1,20.135,20.135,0,0,1-2.451-2.6,10.385,10.385,0,0,1-1.538-2.675,8.38,8.38,0,0,1-.457-2.484,26.634,26.634,0,0,1,.075-3.041,8.576,8.576,0,0,0-.487-3.254,11.306,11.306,0,0,0-3.4-4.963,15.361,15.361,0,0,0-4.727-2.754,32.869,32.869,0,0,0-6.952-1.729,43.224,43.224,0,0,0-7.883-.4,42.752,42.752,0,0,0-13.046,2.531,40.061,40.061,0,0,0-11.034,6.082,24.342,24.342,0,0,0-2.386,2.217,34.352,34.352,0,0,0-5.245,6.881,30.521,30.521,0,0,0-3.079,7.365c-.207.773-.427,1.546-.571,2.331a29.725,29.725,0,0,0-.461,7.016A26.476,26.476,0,0,0,114,192.989a26.751,26.751,0,0,0,7.936,10.04,32.893,32.893,0,0,0,6.817,4.215,34.27,34.27,0,0,0,8.893,2.663,35.588,35.588,0,0,0,6.626.4,37.984,37.984,0,0,0,5.437-.576,39.7,39.7,0,0,0,6.864-1.771c.876-.32,1.73-.7,2.594-1.055l.178-.075,1.1,3.129c-.056.037-.1.068-.144.094a42.219,42.219,0,0,1-11.672,4.615,40.7,40.7,0,0,1-5.772.891,37.974,37.974,0,0,1-5.869.037,35.529,35.529,0,0,1-18.347-6.458,32.26,32.26,0,0,1-10.374-12.168,35.168,35.168,0,0,1-2.715-7.2,34.055,34.055,0,0,1-.946-10.515,36.475,36.475,0,0,1,2.105-9.945c.465-1.3.931-2.6,1.511-3.849a35.028,35.028,0,0,1,8.489-11.4,41.159,41.159,0,0,1,13.52-8.052,44.114,44.114,0,0,1,9.334-2.311,51.58,51.58,0,0,1,8.68-.515,39.849,39.849,0,0,1,9.549,1.513,34.119,34.119,0,0,1,5.846,2.171,22.233,22.233,0,0,1,6.393,4.666,13.422,13.422,0,0,1,3.525,6.887,11.62,11.62,0,0,1,.051,3.854,14.9,14.9,0,0,0-.2,2.739,7.55,7.55,0,0,0,1.935,4.887c.717.8,1.453,1.59,2.183,2.382.374.406.749.81,1.13,1.209a1.266,1.266,0,0,1,.3,1.239,3.583,3.583,0,0,1-.529,1.188,8.559,8.559,0,0,1-1.86,1.976,16.056,16.056,0,0,1-1.442,1.008.707.707,0,0,0-.175,1.114,4.179,4.179,0,0,1,.647.912,2.43,2.43,0,0,1,.085,2.017,3.345,3.345,0,0,1-.635,1.043c-.139.162-.277.326-.417.487a.34.34,0,0,0-.058.4q.118.254.229.511a2.043,2.043,0,0,1,.072,1.484,3.948,3.948,0,0,1-1.038,1.594c-.146.144-.294.285-.429.439a2.387,2.387,0,0,0-.551,1.168,1.687,1.687,0,0,0,.147.91c.1.257.222.5.334.757a5.483,5.483,0,0,1,.474,1.743,3.538,3.538,0,0,1-1.608,3.439,9.747,9.747,0,0,1-3.944,1.543,16.079,16.079,0,0,1-4.283.129,31,31,0,0,1-3.512-.5,5.144,5.144,0,0,0-3.866.828,9.866,9.866,0,0,0-1.981,1.615,14.99,14.99,0,0,1-2.032,1.808,9.827,9.827,0,0,1-3.677,1.706,6.176,6.176,0,0,1-4.113-.471,7.032,7.032,0,0,1-2.388-1.894,10.536,10.536,0,0,1-2.03-4.048,22.737,22.737,0,0,1-.821-6.652,12.748,12.748,0,0,1,.351-2.775A1.872,1.872,0,0,0,139.919,188.024Zm-10.939-2.286a12.24,12.24,0,0,0,.26,2.644,5.226,5.226,0,0,0,.888,2.1,2.392,2.392,0,0,0,2.422.958,5.569,5.569,0,0,0,2.117-.843,10.762,10.762,0,0,0,2.178-1.835,16.168,16.168,0,0,0,3.184-5.052,64.286,64.286,0,0,0,3.874-13.843,11.179,11.179,0,0,0,.08-3.219,5.552,5.552,0,0,0-.644-2.076,2.967,2.967,0,0,0-2.069-1.5,4.282,4.282,0,0,0-1.645.012,6.33,6.33,0,0,0-2.677,1.265,11.773,11.773,0,0,0-2.255,2.336,22.631,22.631,0,0,0-2.777,5,39.948,39.948,0,0,0-2.3,7.819,35.638,35.638,0,0,0-.639,6.238Z" transform="translate(-104.525 -143.16)"/>
</svg>
