<svg xmlns="http://www.w3.org/2000/svg" width="45.787" height="45.787" viewBox="0 0 45.787 45.787"><defs><style>.a{fill:#d94d1a;}</style></defs><path class="a" d="M149.02,177.9a.9.9,0,0,0-.748-.4H130.95a.9.9,0,0,0-.747.4l-4.355,6.61h0a.887.887,0,0,0,.073,1.08l13.008,14.853a.895.895,0,0,0,1.345,0l13-14.853a.894.894,0,0,0,.142-.959.9.9,0,0,0-.067-.121h0Zm1.931,6.206h-5.358l2.679-4.085Zm-14.49,1.789h6.282L139.6,196.623Zm4.8-6.61h5.358l-2.679,4.085Zm1.023,4.821h-5.358l2.679-4.085Zm-7.005-.749-2.67-4.072h5.34Zm-4.328-3.338,2.681,4.087h-5.374ZM134.6,185.9l3.03,10.347L128.566,185.9Zm6.979,10.346,3.03-10.346h6.028Zm0,0" transform="translate(-116.707 -164.801)"/><path class="a" d="M39.081,6.705A22.893,22.893,0,1,0,6.705,39.081,22.893,22.893,0,1,0,39.081,6.705ZM22.893,44A21.1,21.1,0,1,1,44,22.893,21.129,21.129,0,0,1,22.893,44Zm0,0"/><path class="a" d="M138.7,139.456a.9.9,0,0,0,.635-.262l.013-.013a.894.894,0,1,0-1.275-1.254l-.005.005a.893.893,0,0,0,.634,1.524Zm0,0" transform="translate(-127.95 -127.812)"/><path class="a" d="M98.348,72.8a18.071,18.071,0,0,0-22.6-2.39.894.894,0,1,0,.974,1.5,16.275,16.275,0,1,1-4.8,4.794.894.894,0,1,0-1.5-.976A18.066,18.066,0,1,0,98.348,72.8Zm0,0" transform="translate(-62.681 -62.681)"/></svg>